<?xml version="1.0" encoding="utf-8"?>
<!-- Generator: Adobe Illustrator 28.0.0, SVG Export Plug-In . SVG Version: 6.00 Build 0)  -->
<svg version="1.1" id="Layer_1" xmlns="http://www.w3.org/2000/svg" xmlns:xlink="http://www.w3.org/1999/xlink" x="0px" y="0px"
	 viewBox="0 0 895.3 888.1" style="enable-background:new 0 0 895.3 888.1;" xml:space="preserve">
<style type="text/css">
	.st0{display:none;}
	.st1{display:inline;}
	.st2{clip-path:url(#SVGID_00000180353663531341148190000016982527333244685231_);}
	
		.st3{clip-path:url(#SVGID_00000117660350734868763520000003047134925847484812_);fill:url(#SVGID_00000132078720853574692980000018327234984535834254_);}
	.st4{clip-path:url(#SVGID_00000022559989170462406070000010926040401209684114_);}
	.st5{clip-path:url(#SVGID_00000052065725996558373320000008383798883040288438_);fill:#FFFFFF;}
	.st6{clip-path:url(#SVGID_00000167393894583425704410000013323761029146674067_);}
	.st7{fill:url(#SVGID_00000087380207956826272640000007734088379491553930_);}
	.st8{fill:#FFFFFF;}
</style>
<g id="Layer_4" class="st0">
	<g class="st1">
		<g>
			<g>
				<defs>
					<rect id="SVGID_1_" x="-861.7" y="-103.3" width="718.3" height="704.7"/>
				</defs>
				<clipPath id="SVGID_00000023256992932449585950000014566910987253620136_">
					<use xlink:href="#SVGID_1_"  style="overflow:visible;"/>
				</clipPath>
				<g style="clip-path:url(#SVGID_00000023256992932449585950000014566910987253620136_);">
					<g>
						<defs>
							<path id="SVGID_00000014615372971858246580000012516317106101286331_" d="M-693.8-46.3c-61,0-110.4,49.4-110.4,110.4v383.7
								c0,61,49.4,110.4,110.4,110.4h383.7c61,0,110.4-49.4,110.4-110.4V64c0-61-49.4-110.4-110.4-110.4L-693.8-46.3L-693.8-46.3z"
								/>
						</defs>
						<clipPath id="SVGID_00000031167017032457427230000016233570515985080765_">
							<use xlink:href="#SVGID_00000014615372971858246580000012516317106101286331_"  style="overflow:visible;"/>
						</clipPath>
						
							<linearGradient id="SVGID_00000016065079977444834320000011904320571050800053_" gradientUnits="userSpaceOnUse" x1="-443.4247" y1="1733.6182" x2="-442.7384" y2="1733.6182" gradientTransform="matrix(786.6128 786.6128 -786.6128 786.6128 1711717.875 -1014896.625)">
							<stop  offset="0" style="stop-color:#52439B"/>
							<stop  offset="0.3103" style="stop-color:#52439B"/>
							<stop  offset="0.7323" style="stop-color:#2E2868"/>
							<stop  offset="1" style="stop-color:#2E2868"/>
						</linearGradient>
						
							<polygon style="clip-path:url(#SVGID_00000031167017032457427230000016233570515985080765_);fill:url(#SVGID_00000016065079977444834320000011904320571050800053_);" points="
							-502,-348.6 102.5,255.9 -502,860.4 -1106.4,255.9 						"/>
					</g>
				</g>
			</g>
			<g>
				<defs>
					<rect id="SVGID_00000042707475690263079910000008838196502564638142_" x="-861.7" y="-103.3" width="718.3" height="704.7"/>
				</defs>
				<clipPath id="SVGID_00000023252287699443555110000002294571461795045540_">
					<use xlink:href="#SVGID_00000042707475690263079910000008838196502564638142_"  style="overflow:visible;"/>
				</clipPath>
				<g style="clip-path:url(#SVGID_00000023252287699443555110000002294571461795045540_);">
					<g>
						<defs>
							<rect id="SVGID_00000134930920215881637660000005426856775865427893_" x="-861.7" y="-103.3" width="718.3" height="704.7"/>
						</defs>
						<clipPath id="SVGID_00000122718103211070196810000016481754710703785872_">
							<use xlink:href="#SVGID_00000134930920215881637660000005426856775865427893_"  style="overflow:visible;"/>
						</clipPath>
						<path style="clip-path:url(#SVGID_00000122718103211070196810000016481754710703785872_);fill:#FFFFFF;" d="M-377.2,267.4
							c-80.8,191.9-205.2,152.9-253.3,92c-34.5-43.7-19.4-167.1,146.4-189.9c56.6-7.8,106.1-68.1,26.8-112.1
							C-323.1,60.4-340.7,180.7-377.2,267.4"/>
					</g>
					<g>
						<defs>
							<rect id="SVGID_00000141430191080483953450000008089696630385804179_" x="-861.7" y="-103.3" width="718.3" height="704.7"/>
						</defs>
						<clipPath id="SVGID_00000102529018875606425400000006968493681831579835_">
							<use xlink:href="#SVGID_00000141430191080483953450000008089696630385804179_"  style="overflow:visible;"/>
						</clipPath>
						<path style="clip-path:url(#SVGID_00000102529018875606425400000006968493681831579835_);" d="M251.9,295.5
							c-9.8-49.4-55.7-272-241.4-159.7c43.2-3.8,149.5-49.4,191.7,180c5.6,30.5,14.6,219.3-187.3,220.4
							c-201.9,1.1-26.5-242.6-26.7-243.9c-164.8,132-105,276.2-34.3,294.9C58.2,614.8,305.5,565.4,251.9,295.5"/>
					</g>
				</g>
			</g>
		</g>
	</g>
</g>
<g id="Layer_2_00000150097270443070730850000007289105006729824174_">
	
		<linearGradient id="SVGID_00000032608652772298874920000010118487879350938004_" gradientUnits="userSpaceOnUse" x1="53.119" y1="820.119" x2="839.719" y2="33.519" gradientTransform="matrix(1 0 0 -1 0 872.4379)">
		<stop  offset="0.3103" style="stop-color:#52439A"/>
		<stop  offset="0.7323" style="stop-color:#2E2868"/>
	</linearGradient>
	<path style="fill:url(#SVGID_00000032608652772298874920000010118487879350938004_);" d="M726,886H166.8C78,886,6,814,6,725.2V166
		C6,77.2,78,5.2,166.8,5.2H726c88.8,0,160.8,72,160.8,160.8v559.2C886.8,814,814.8,886,726,886z"/>
	<path class="st8" d="M628.3,462.4C510.6,742,329.3,685.2,259.2,596.5c-50.3-63.7-28.2-243.4,213.4-276.7
		c82.5-11.4,154.6-99.2,39-163.3C707.1,160.7,681.5,336,628.3,462.4z"/>
</g>
</svg>
